<?xml version="1.0" encoding="utf-8"?>
<!-- Generator: Adobe Illustrator 25.0.1, SVG Export Plug-In . SVG Version: 6.00 Build 0)  -->
<svg version="1.1" id="Layer_1" xmlns="http://www.w3.org/2000/svg" xmlns:xlink="http://www.w3.org/1999/xlink" x="0px" y="0px"
	 viewBox="0 0 566.1 137.9" style="enable-background:new 0 0 566.1 137.9;" xml:space="preserve">
<style type="text/css">
	.st0{fill:#FFFFFF;}
	.st1{opacity:0.6;fill:#FFFFFF;}
	.st2{fill:none;}
	.st3{fill:#E0E0E0;}
	.st4{fill:#4690F9;}
	.st5{fill:#D81B61;}
	.st6{fill:#71EA49;}
</style>
<g>
	<g>
		<g>
			<path class="st0" d="M149.8,82.6l12.3-7.1c2.2,5.2,6,8.6,13.1,8.6c6.8,0,8.4-2.7,8.4-5.1c0-3.8-3.6-5.3-12.9-7.9
				c-9.2-2.6-18.3-7-18.3-18.9c0-12,10.1-18.9,20.9-18.9c10.2,0,18.2,4.9,22.8,14l-12,7c-2.1-4.4-5.1-7.2-10.8-7.2
				c-4.4,0-6.7,2.2-6.7,4.7c0,2.8,1.5,4.8,11.2,7.7c9.4,2.8,20,6.1,20,19.3c0,12-9.6,19.1-23.1,19.1C161.7,98,153.3,91.8,149.8,82.6
				z"/>
			<path class="st0" d="M204.5,31.9h13.3v64.9h-13.3V31.9z"/>
			<path class="st0" d="M226.3,40.4c0-4.4,3.6-8,8-8c4.4,0,8,3.6,8,8c0,4.4-3.6,8-8,8C229.9,48.4,226.3,44.7,226.3,40.4z
				 M227.6,52.3H241v44.4h-13.3V52.3z"/>
			<path class="st0" d="M293.4,69.5v27.3h-13.3V71.4c0-5.5-3.5-8.1-7.7-8.1c-4.9,0-8.3,2.8-8.3,9.2v24.3h-13.3V52.3h13.3v4.2
				c2.4-3.3,6.8-5.4,12.7-5.4C285.8,51.1,293.4,57.5,293.4,69.5z"/>
			<path class="st0" d="M348.2,52.3v42.2c0,14.9-11.6,21.2-23.5,21.2c-9.2,0-17-3.5-21.1-10.8l11.4-6.6c1.7,3.1,4.3,5.6,10.1,5.6
				c6.2,0,10-3.2,10-9.5v-4.1c-2.9,3.6-7.2,5.8-13,5.8c-12.6,0-21.9-10.3-21.9-22.6s9.2-22.6,21.9-22.6c5.8,0,10,2.1,13,5.8v-4.5
				H348.2z M335.2,73.6c0-6.1-4.4-10.3-10.8-10.3s-10.8,4.2-10.8,10.3c0,6.1,4.4,10.3,10.8,10.3S335.2,79.8,335.2,73.6z"/>
			<path class="st0" d="M392,83.4c0,10.2-8.9,14.6-18.5,14.6c-8.9,0-15.6-3.4-19.1-10.6l11.6-6.6c1.2,3.4,3.6,5.2,7.6,5.2
				c3.2,0,4.8-1,4.8-2.8c0-4.9-21.9-2.3-21.9-17.7c0-9.7,8.2-14.6,17.4-14.6c7.2,0,13.6,3.2,17.3,9.5l-11.4,6.1
				c-1.2-2.3-3-3.9-6-3.9c-2.3,0-3.7,0.9-3.7,2.5C370.1,70.3,392,67,392,83.4z"/>
			<path class="st0" d="M441.3,69.5v27.3H428V71.4c0-5.5-3.5-8.1-7.7-8.1c-4.9,0-8.3,2.8-8.3,9.2v24.3h-13.3V34.5H412v22
				c2.4-3.3,6.8-5.4,12.7-5.4C433.7,51.1,441.3,57.5,441.3,69.5z"/>
			<path class="st0" d="M448.2,74.5c0-13.2,10.5-23.5,23.6-23.5s23.6,10.2,23.6,23.5S484.9,98,471.8,98S448.2,87.8,448.2,74.5z
				 M482,74.5c0-6.3-4.4-10.5-10.2-10.5s-10.2,4.2-10.2,10.5c0,6.3,4.4,10.5,10.2,10.5S482,80.8,482,74.5z"/>
			<path class="st0" d="M518.9,65.1v15.7c0,3.8,3.3,4.2,9.2,3.8v12.1c-17.4,1.8-22.5-3.5-22.5-15.9V65.1h-7.1V52.3h7.1v-8.4l13.3-4
				v12.4h9.2v12.8H518.9z"/>
		</g>
	</g>
	<g>
		<path class="st1" d="M70.7,32.2c0.6,0,1.2,0,1.8,0C71.9,32.2,71.3,32.2,70.7,32.2L70.7,32.2z"/>
		<path class="st1" d="M72.7,32.2c-0.1,0-0.1,0-0.2,0C72.6,32.2,72.6,32.2,72.7,32.2z"/>
		<path class="st2" d="M95.1,36.4C92,40.8,92.9,46.9,97.3,50c1.7,1.3,3.7,1.9,5.7,1.9c3,0,6-1.4,7.9-4c3.2-4.4,2.2-10.5-2.2-13.6
			c-1.7-1.3-3.7-1.9-5.7-1.9C100,32.4,97,33.8,95.1,36.4z"/>
		<path class="st3" d="M116,62.6c-1.6,2.1-3.3,4.1-5.2,5.8c0.5,6.6-1.1,13.4-5.3,19.2c-2.3,3.1-5.1,5.7-8.2,7.6
			c1.5-6,0.9-12.4-1.6-18.1c-3.1,1-6.3,1.5-9.5,1.7c-12.1,13.1-27.7,22.5-44.6,26.7c-2.4,0.6-4.7,0.9-6.8,1c9.4,8.9,22,14.4,36,14.4
			c28.8,0,52.1-23.3,52.1-52.1c0-5.2-0.8-10.3-2.2-15.1C119.6,56.9,118,59.8,116,62.6z"/>
		<path class="st4" d="M74.9,74c-3.7,2.8-7.8,5.3-12.1,7.5c-0.5,0.2-1,0.5-1.5,0.7c-5.6,2.7-11.5,4.9-17.6,6.5
			c-0.9,0.2-1.9,0.5-2.9,0.8C37,90.7,32.5,92,28.4,92c-1.4,0-2.7-0.1-3.9-0.4c-0.3-0.1-0.5-0.1-0.8-0.3c-2.1-0.9-4-3.2-5-5.7
			c-0.5,5.4,0.5,9.9,3,13c2.6,3.2,6.7,4.9,11.9,4.9c2.3,0,4.8-0.3,7.4-1c15.3-3.8,29.5-12.1,41-23.6c-1.7-0.1-3.4-0.3-5.1-0.6
			C76.1,76.9,75.5,75.5,74.9,74z"/>
		<path class="st5" d="M19.1,66.9c-0.2,5,0.3,10.1,1.5,15.1c0.8,2,1.8,4,3.7,5.2c3.8,2.5,10.1,1,14.5-0.2C35.2,80.3,33.9,73,34.5,66
			c0,0,0,0,0,0c0,0.1,0,0.1,0,0.2C29.4,66.9,24.3,66.8,19.1,66.9z"/>
		<path class="st4" d="M45.9,23.5c-2.7,1.5-5.2,3.2-7.6,5.1c-7.1,5.7-12.6,13.2-15.9,21.7c-2,5.3-3.2,10.9-3.4,16.6
			c5.1,0.1,10.3-0.2,15.4-0.7c0.8-9,5.1-17.7,11.7-23.9s15.5-9.9,24.6-10.2c0-5.1-0.1-10.2-0.1-15.2c-1.6,0-5.3,0.1-9.9,1.1
			C55.6,19.1,50.5,20.9,45.9,23.5z"/>
		<path class="st6" d="M74.8,17c-1.3-0.1-2.8-0.1-4.2-0.1l0.1,15.3v0c3.7-0.1,7.3,0.4,10.8,1.4c4-4.7,8.9-8.2,14.2-10.5
			C89.3,19.6,82.2,17.5,74.8,17z"/>
		<path class="st5" d="M97.4,95.1c3.1-1.9,5.9-4.4,8.2-7.6c4.2-5.8,5.9-12.6,5.3-19.2c1.9-1.7,3.6-3.7,5.2-5.8
			c2-2.8,3.6-5.7,4.8-8.7c4.3-11,3.4-23.2-2.1-33.4c-2.4-0.4-4.7-0.6-7.1-0.6c-5.4,0-10.8,1.1-15.8,3.3c-5.4,2.3-10.2,5.8-14.2,10.5
			c-0.7,0.8-1.4,1.7-2,2.5c-1.6,2.1-2.8,4.4-3.9,6.7c-6.4,1.5-12.4,5.3-16.6,11.1c-2.3,3.1-3.8,6.6-4.7,10.1
			c4.6-2.8,9.8-4.3,15.1-4.3c0.8,0,1.7,0,2.5,0.1c0.1,4.8,1,9.6,2.9,14.2c0.6,1.4,1.2,2.8,2,4.2c1.7,0.3,3.4,0.5,5.1,0.6
			c0.7,0,1.3,0.1,2,0.1c0.8,0,1.6,0,2.3-0.1c3.2-0.2,6.4-0.8,9.5-1.7C98.2,82.7,98.8,89.1,97.4,95.1z M110.9,47.8
			c-1.9,2.6-4.9,4-7.9,4c-2,0-4-0.6-5.7-1.9c-4.4-3.2-5.3-9.3-2.2-13.6c1.9-2.6,4.9-4,7.9-4c2,0,4,0.6,5.7,1.9
			C113.1,37.4,114.1,43.5,110.9,47.8z"/>
	</g>
	<path class="st0" d="M110.9,47.8c-1.9,2.6-4.9,4-7.9,4c-2,0-4-0.6-5.7-1.9c-4.4-3.2-5.3-9.3-2.2-13.6c1.9-2.6,4.9-4,7.9-4
		c2,0,4,0.6,5.7,1.9C113.1,37.4,114.1,43.5,110.9,47.8z"/>
	<g>
		<path class="st0" d="M532.1,44.5c0-0.9,0.2-1.7,0.6-2.5c0.4-0.8,1-1.4,1.7-1.8c0.7-0.4,1.5-0.7,2.4-0.7c0.9,0,1.7,0.2,2.4,0.7
			c0.7,0.4,1.3,1.1,1.7,1.8c0.4,0.8,0.6,1.6,0.6,2.5c0,0.9-0.2,1.7-0.6,2.5c-0.4,0.8-1,1.4-1.7,1.9c-0.7,0.5-1.6,0.7-2.4,0.7
			c-0.9,0-1.7-0.2-2.4-0.7c-0.7-0.5-1.3-1.1-1.7-1.9C532.3,46.2,532.1,45.4,532.1,44.5z M532.8,44.5c0,0.8,0.2,1.5,0.5,2.1
			c0.4,0.7,0.8,1.2,1.5,1.5c0.6,0.4,1.3,0.6,2,0.6c0.7,0,1.4-0.2,2-0.6c0.6-0.4,1.1-0.9,1.5-1.5c0.4-0.6,0.5-1.4,0.5-2.1
			c0-0.8-0.2-1.5-0.5-2.1c-0.4-0.6-0.8-1.2-1.5-1.5c-0.6-0.4-1.3-0.6-2-0.6c-0.7,0-1.4,0.2-2,0.6c-0.6,0.4-1.1,0.9-1.5,1.5
			C533,43,532.8,43.7,532.8,44.5z M535.9,45v2.3h-0.9v-5.7h1.9c0.7,0,1.2,0.1,1.6,0.4c0.4,0.3,0.6,0.7,0.6,1.3c0,0.6-0.3,1-0.9,1.3
			c0.5,0.2,0.8,0.7,0.8,1.4v0.4c0,0.4,0,0.7,0.1,0.8v0.1h-1c-0.1-0.2-0.1-0.4-0.1-0.9s0-0.7,0-0.7c-0.1-0.4-0.4-0.7-0.9-0.7H535.9z
			 M535.9,44.1h1c0.3,0,0.6-0.1,0.8-0.2c0.2-0.1,0.3-0.3,0.3-0.6c0-0.3-0.1-0.6-0.3-0.7c-0.2-0.1-0.5-0.2-0.9-0.2h-0.9V44.1z"/>
	</g>
</g>
</svg>
