<?xml version="1.0" encoding="UTF-8"?>
<svg width="20px" height="20px" viewBox="0 0 20 20" version="1.1" xmlns="http://www.w3.org/2000/svg" xmlns:xlink="http://www.w3.org/1999/xlink">
    <title>alert_icon1</title>
    <g id="Eddy's-Design" stroke="none" stroke-width="1" fill="none" fill-rule="evenodd">
        <g id="alert_icon1">
            <path d="M10,19.3333333 C15.1546577,19.3333333 19.3333333,15.1546577 19.3333333,10 C19.3333333,4.84534234 15.1546577,0.666666667 10,0.666666667 C4.84534234,0.666666667 0.666666667,4.84534234 0.666666667,10 C0.666666667,15.1546577 4.84534234,19.3333333 10,19.3333333 Z" id="Oval-2" stroke="#FFFFFF" stroke-linecap="round" stroke-linejoin="round"></path>
            <path d="M10.6323242,14.6666667 L9.36767578,14.6666667 L9.36767578,7.27018229 L10.6323242,7.27018229 L10.6323242,14.6666667 Z M9.26513672,5.30826823 C9.26513672,5.10318908 9.32779885,4.93001373 9.453125,4.78873698 C9.57845115,4.64746023 9.76415893,4.57682292 10.0102539,4.57682292 C10.2563489,4.57682292 10.443196,4.64746023 10.5708008,4.78873698 C10.6984056,4.93001373 10.762207,5.10318908 10.762207,5.30826823 C10.762207,5.51334738 10.6984056,5.68424411 10.5708008,5.82096354 C10.443196,5.95768298 10.2563489,6.02604167 10.0102539,6.02604167 C9.76415893,6.02604167 9.57845115,5.95768298 9.453125,5.82096354 C9.32779885,5.68424411 9.26513672,5.51334738 9.26513672,5.30826823 Z" id="Shape" fill="#FFFFFF" fill-rule="nonzero"></path>
        </g>
    </g>
</svg>